<svg id="Слой_1" data-name="Слой 1" xmlns="http://www.w3.org/2000/svg" viewBox="0 0 1605 537"><defs><style>.cls-1{fill:#191919;}.cls-2{fill:#dc3642;}</style></defs><title>Монтажная область 2</title><path class="cls-1" d="M1399.65,103.83a41.24,41.24,0,1,0-41.23-41.23A41.24,41.24,0,0,0,1399.65,103.83Z"/><path class="cls-1" d="M1552,445.3h17.9c12.78,0,19.31-10,19.31-19.22V324.58c0-9.19-7.2-19.34-19.31-19.34H1552Z"/><path class="cls-1" d="M1350.45,114.53l-86.86-88.86c-19.17-19.17-47.13,8.79-28,28l111,113V493.33c0,32.26,47.07,31.31,47.07,0V305.23l7.89,0V493.34c0,31.32,47.43,32.25,47.43,0V179.05h8.33V305.24h-26.14V445.3H1542.4V305.24h-26.3V286.07c0-7.19-4.31-11-12-11h-12.19V166.24c0-25.16-21.55-51.71-50-51.71Z"/><rect class="cls-1" x="1468.46" y="286.31" width="35.9" height="18.93"/><path class="cls-1" d="M430.58,306.39H384.53l-46.69-55.95H267.32q0-13.41,0-26.83H193.74v26.83H122.45L73.88,306.39H26.64V325H57.75L26.64,360.81V517.18h92.72q.11-18.87.22-37.75l218.35.56-.06,37.19h92.71V361.57L400,325h30.54ZM128.2,279,330,278.61,367.16,325,91.22,324.6Zm17.15,100.7H73.49v-27h71.86Zm239.15,0H312.64v-27H384.5Z"/><path class="cls-1" d="M58.09,145.85a62.11,62.11,0,0,1-20.85-3.17,56.18,56.18,0,0,1-15.43-8.23l8.05-12.16A39.57,39.57,0,0,0,41.36,129a46.11,46.11,0,0,0,17.11,2.81q13.83,0,21.22-5.52t7.39-16.73a22,22,0,0,0-7.76-17.39q-7.77-6.73-22.91-6.74H43.88V72.18H54.54q12.72,0,20.1-5.52t7.39-16q0-9-6.08-14.21T58.09,31.22a50,50,0,0,0-15.52,2.15,38.23,38.23,0,0,0-11.41,5.89L24.81,27.67A50.9,50.9,0,0,1,38.08,20.1q8-3.27,20.39-3.28a63.14,63.14,0,0,1,16.08,2,36.33,36.33,0,0,1,12.9,6.08A29.22,29.22,0,0,1,96,35.06a30.75,30.75,0,0,1,3.09,14.12q0,11.22-5.43,18.6t-15.71,10v.37a34,34,0,0,1,10.48,3.55,29.48,29.48,0,0,1,8.41,6.74,31.8,31.8,0,0,1,5.61,9.44,32.75,32.75,0,0,1,2.06,11.87,35,35,0,0,1-3.46,16,31.44,31.44,0,0,1-9.63,11.32A42.32,42.32,0,0,1,76.7,143.7,75.62,75.62,0,0,1,58.09,145.85Z"/><path class="cls-1" d="M180.76,19.07H197l48.06,124.54H226.77l-10.85-29.36H160.57l-10.66,29.36H133.08Zm29.92,81.16L195.91,60q-3-7.85-4.49-12.71c-1-3.25-2-6.18-3-8.79h-.37c-.88,2.87-1.87,6-3,9.35s-2.55,7.41-4.3,12.15l-15,40.21Z"/><path class="cls-1" d="M284.55,19.07h16.83V73.49H312l40.39-54.42h18.89L325.5,78.35a44.32,44.32,0,0,1,8.88,9.35q4.59,6.17,11.13,15.71,4.11,6.16,7.39,11t6.07,8.23a25.79,25.79,0,0,0,5.52,5.14,10.58,10.58,0,0,0,5.89,1.78h1.87l-.37,14h-6.55a19.49,19.49,0,0,1-8-1.59,25.37,25.37,0,0,1-7.2-5.14,66.1,66.1,0,0,1-7.67-9.26q-4-5.7-9.63-13.93-4.11-6-7.29-10.94t-5.89-8.41A26.75,26.75,0,0,0,314.28,89a9.74,9.74,0,0,0-5.8-1.87h-7.1v56.47H284.55Z"/><path class="cls-1" d="M443.31,19.07h16.27l48.06,124.54H489.31l-10.84-29.36H423.11l-10.65,29.36H395.63Zm29.92,81.16L458.46,60q-3-7.85-4.49-12.71t-3-8.79h-.38q-1.31,4.31-3,9.35T443.31,60l-15,40.21Z"/><path class="cls-1" d="M536.62,129.59h1.5a10.58,10.58,0,0,0,5.89-1.78,26,26,0,0,0,5.51-5.14,79.16,79.16,0,0,0,5.89-8.23q3.09-4.86,7.39-11,6.36-9.54,11-15.71a46.31,46.31,0,0,1,9-9.35L537.18,19.07h18.7l40.39,54.42h10.85V19.07h16.64V73.49h10.85l40.2-54.42H693.7L647.89,78.35a46.57,46.57,0,0,1,9,9.35q4.68,6.17,11.22,15.71,4.11,6.16,7.3,11a88.61,88.61,0,0,0,6,8.23,25.79,25.79,0,0,0,5.52,5.14,10.53,10.53,0,0,0,5.89,1.78h1.87l-.38,14h-6.54a19.43,19.43,0,0,1-8-1.59,24.26,24.26,0,0,1-7.11-5.14,75.64,75.64,0,0,1-7.67-9.26q-4.11-5.7-9.72-13.93-4.12-6-7.2-10.94a95.71,95.71,0,0,0-5.8-8.41A25.48,25.48,0,0,0,636.76,89a9.87,9.87,0,0,0-5.7-1.87h-7.3v56.47H607.12V87.14h-8a9.8,9.8,0,0,0-5.52,2.15,31,31,0,0,0-5.23,5.42q-2.72,3.47-5.8,8.32t-7,10.66q-5.43,8.24-9.54,13.93a70.46,70.46,0,0,1-7.76,9.26A25.37,25.37,0,0,1,551,142a19.49,19.49,0,0,1-8,1.59h-6.73Z"/><path class="cls-1" d="M735.4,19.07h15.71v83.21c0,4.74-.1,8.54-.28,11.41s-.35,4.86-.47,6h.37c1-1.74,2.46-4.2,4.4-7.38s4.45-7,7.57-11.5l55.73-81.72h16.83V143.61H819.74V55q0-4.86.28-8.69c.18-2.56.28-4.4.28-5.52h-.38q-1.5,2.63-4.2,7.29t-5.89,9.35l-58.72,86.21H735.4Z"/><path class="cls-2" d="M963.94,192.35q-37.12,0-54.92-17.79t-17.79-51.33V18.78h36.1V120.16q0,22,8.57,32.25t28.8,10.24q19.2,0,27.52-10.75t8.32-29.44V18.78h33.28V119.9q0,35.08-17.4,53.76T963.94,192.35Z"/><path class="cls-2" d="M1074.78,18.78h56.07A100.42,100.42,0,0,1,1156.7,22a58.6,58.6,0,0,1,20.74,9.86,46.87,46.87,0,0,1,13.69,16.76q5,10.13,5,23.94t-4.87,24.32a46.69,46.69,0,0,1-14,17.54A63.19,63.19,0,0,1,1155.42,125a106.26,106.26,0,0,1-28.67,3.58h-15.62v60.68h-36.35Zm52.48,82.43q17.15,0,24.83-6.91t7.68-21.25q0-13.05-7.42-19.84T1128,46.43h-16.9v54.78Z"/><path class="cls-1" d="M530.31,264.35H448.1V222.8H662.47v41.55H580.7V517.18H530.31Z"/><path class="cls-1" d="M770.31,222.8h48.18L933,517.18H878.6l-23-63.21H730.53L708,517.18H658.05Zm70.28,190.51-30.5-84q-6.63-18.57-10.38-30.94T793.3,278.5h-.89q-2.2,8-6.18,20.77t-10.17,30.06l-30.94,84Z"/><path class="cls-1" d="M1043,365.57,954.18,222.8h57l62.32,101.66,58.79-101.66h51.27l-85.75,142.33,94.59,152h-56.58l-68.95-111.83-66.3,111.83H949.76Z"/><path class="cls-1" d="M1244.13,222.8h49.94V517.18h-49.94Z"/></svg>
